mtllib romanMuscleLowerArm.mtl
o Default
v 0 -2.1875 1.2212453270876722e-15
v -0.25 -0.6875 0.25
v 0.25 -0.6875 0.25
v 0 -2.1875 1.2212453270876722e-15
v 0 -2.1875 1.2212453270876722e-15
v -0.25 -0.6875 0.25
v -0.25 -0.6875 -0.25
v 0 -2.1875 1.2212453270876722e-15
v -0.25 -0.8125 0.25
v 0.25 1.3125 0.25
v -0.25 1.3125 0.25
v 0.25 -0.8125 0.25
v -0.25 -0.8125 -0.25
v -0.25 1.3125 0.25
v -0.25 1.3125 -0.25
v -0.25 -0.8125 0.25
v 0.25 -0.8125 -0.25
v -0.25 1.3125 -0.25
v 0.25 1.3125 -0.25
v -0.25 -0.8125 -0.25
v 0.25 -0.8125 0.25
v 0.25 1.3125 -0.25
v 0.25 1.3125 0.25
v 0.25 -0.8125 -0.25
v 0 -2.1875 1.2212453270876722e-15
v 0.25 -0.6875 -0.25
v 0.25 -0.6875 0.25
v 0 -2.1875 1.2212453270876722e-15
v 0 -2.1875 1.2212453270876722e-15
v -0.25 -0.6875 -0.25
v 0.25 -0.6875 -0.25
v -4.440892098500626e-16 -2.1875 1.3322676295501878e-15
vt 0.03125 0.265625
vt 0.09375 0.453125
vt 0.03125 0.453125
vt 0.09375 0.265625
vt 0.03125 0.484375
vt 0.09375 0.75
vt 0.03125 0.75
vt 0.09375 0.484375
vn 0 -0.16439899 0.98639392
vn 0 0 0
vn -0.98639392 -0.16439899 0
vn 0 0 1
vn -1 0 0
vn 0 0 -1
vn 1 0 0
vn 0.98639392 -0.16439899 0
vn 0 -0.16439899 -0.98639392
vn -0.23772866 -0.19810721 -0.95091462
g Scene
usemtl 0
f 1/1/1 3/2/1 2/3/1
f 1/1/2 4/4/2 3/2/2
f 5/1/3 6/2/3 7/3/3
f 5/1/2 8/4/2 6/2/2
f 9/5/4 10/6/4 11/7/4
f 9/5/4 12/8/4 10/6/4
f 13/5/5 14/6/5 15/7/5
f 13/5/5 16/8/5 14/6/5
f 17/5/6 18/6/6 19/7/6
f 17/5/6 20/8/6 18/6/6
f 21/5/7 22/6/7 23/7/7
f 21/5/7 24/8/7 22/6/7
f 25/1/8 26/2/8 27/3/8
f 25/1/2 28/4/2 26/2/2
f 29/1/9 30/2/9 31/3/9
f 29/1/10 32/4/10 30/2/10
