mtllib upperArm.mtl
o Default
v -0.25 -0.6875 0.25
v -0.25 0.8125 0.25
v 0.25 0.8125 0.25
v 0.25 -0.6875 0.25
v -0.25 -0.6875 -0.25
v -0.25 0.8125 0.25
v -0.25 0.8125 -0.25
v -0.25 -0.6875 0.25
v 0.25 -0.6875 -0.25
v -0.25 0.8125 -0.25
v 0.25 0.8125 -0.25
v -0.25 -0.6875 -0.25
v 0.25 -0.6875 0.25
v 0.25 0.8125 -0.25
v 0.25 0.8125 0.25
v 0.25 -0.6875 -0.25
v -0.3125 -1.3125 -0.3125
v -0.3125 -0.6875 0.3125
v -0.3125 -0.6875 -0.3125
v -0.3125 -1.3125 0.3125
v 0.3125 -1.3125 0.3125
v 0.3125 -0.6875 -0.3125
v 0.3125 -0.6875 0.3125
v 0.3125 -1.3125 -0.3125
v -0.3125 -1.3125 0.3125
v 0.3125 -0.6875 0.3125
v -0.3125 -0.6875 0.3125
v 0.3125 -1.3125 0.3125
v -0.3125 -0.6875 0.3125
v 0.3125 -0.6875 -0.3125
v -0.3125 -0.6875 -0.3125
v 0.3125 -0.6875 0.3125
v -0.3125 -1.3125 -0.3125
v 0.3125 -1.3125 0.3125
v -0.3125 -1.3125 0.3125
v 0.3125 -1.3125 -0.3125
v 0.3125 -1.3125 -0.3125
v -0.3125 -0.6875 -0.3125
v 0.3125 -0.6875 -0.3125
v -0.3125 -1.3125 -0.3125
vt 0.03125 0.78125
vt 0.09375 0.96875
vt 0.03125 0.96875
vt 0.09375 0.78125
vt 0.125 0.890625
vt 0.203125 0.96875
vt 0.125 0.96875
vt 0.203125 0.890625
vt 0.125 0.78125
vt 0.203125 0.859375
vt 0.125 0.859375
vt 0.203125 0.78125
vn 0 0 1
vn -1 0 0
vn 0 0 -1
vn 1 0 0
vn 0 1 0
vn 0 -1 0
g Scene
usemtl 0
f 1/1/1 3/2/1 2/3/1
f 1/1/1 4/4/1 3/2/1
f 5/1/2 6/2/2 7/3/2
f 5/1/2 8/4/2 6/2/2
f 9/1/3 10/2/3 11/3/3
f 9/1/3 12/4/3 10/2/3
f 13/1/4 14/2/4 15/3/4
f 13/1/4 16/4/4 14/2/4
f 17/5/2 18/6/2 19/7/2
f 17/5/2 20/8/2 18/6/2
f 21/5/4 22/6/4 23/7/4
f 21/5/4 24/8/4 22/6/4
f 25/9/1 26/10/1 27/11/1
f 25/9/1 28/12/1 26/10/1
f 29/9/5 30/10/5 31/11/5
f 29/9/5 32/12/5 30/10/5
f 33/9/6 34/10/6 35/11/6
f 33/9/6 36/12/6 34/10/6
f 37/9/3 38/10/3 39/11/3
f 37/9/3 40/12/3 38/10/3
