mtllib romanMuscleUpperLeg.mtl
o Default
v 0.3500000238418579 -0.875 -0.3500000238418579
v 0.3828125 0.75 -0.328125
v -0.3828125 0.75 -0.328125
v -0.3499999940395355 -0.875 -0.3500000238418579
v -0.3500000238418579 -0.875 0.3499999940395355
v 0.3828125 0.75 0.328125
v -0.3828125 0.75 0.328125
v 0.3500000238418579 -0.875 0.3499999940395355
v -0.3499999940395355 -0.875 -0.3500000238418579
v -0.3828125 0.75 0.328125
v -0.3828125 0.75 -0.328125
v -0.3500000238418579 -0.875 0.3499999940395355
v 0.3500000238418579 -0.875 0.3499999940395355
v 0.3828125 0.75 -0.328125
v 0.3828125 0.75 0.328125
v 0.3500000238418579 -0.875 -0.3500000238418579
vt 0.03125 0.765625
vt 0.140625 0.96875
vt 0.03125 0.96875
vt 0.140625 0.765625
vn 0 0.01346033 -0.99990941
vn 0 0.01346032 0.99990941
vn -0.9997962 -0.0201882 0
vn -0.9997962 -0.02018818 -4e-8
vn 0.9997962 -0.02018818 0
g Scene
usemtl 0
f 1/1/1 3/2/1 2/3/1
f 1/1/1 4/4/1 3/2/1
f 5/1/2 6/2/2 7/3/2
f 5/1/2 8/4/2 6/2/2
f 9/1/3 10/2/3 11/3/3
f 9/1/4 12/4/4 10/2/4
f 13/1/5 14/2/5 15/3/5
f 13/1/5 16/4/5 14/2/5
