mtllib romanMuscleCore.mtl
o Default
v -1 -0.9803931713104248 2.394606828689575
v -1 1.0196068286895752 2.394606828689575
v 1 1.0196068286895752 2.394606828689575
v 1 -0.9803931713104248 2.394606828689575
v -1.0012264251708984 -2.394606828689575 0.9791666269302368
v 1 -0.9803931713104248 2.394606828689575
v -1 -0.9803931713104248 2.394606828689575
v 1.0012264251708984 -2.394606828689575 0.9791667461395264
v -1 1.0196068286895752 2.394606828689575
v 1.0012264251708984 2.394606828689575 0.9791667461395264
v -1.0012264251708984 2.394606828689575 0.9791666269302368
v 1 1.0196068286895752 2.394606828689575
v -1 -2.394836664199829 -1.0197067260742188
v -2.415440082550049 -0.9803931713104248 0.9791666269302368
v -2.415440082550049 -0.9803931713104248 -1.0208334922790527
v -1.0012264251708984 -2.394606828689575 0.9791666269302368
v -2.415440082550049 -0.9803931713104248 -1.0208334922790527
v -2.415440082550049 0.9803931713104248 0.9791665077209473
v -2.415440082550049 0.9803931713104248 -1.0208334922790527
v -2.415440082550049 -0.9803931713104248 0.9791666269302368
v -2.415440082550049 0.9803931713104248 -1.0208334922790527
v -1.0012264251708984 2.394606828689575 0.9791666269302368
v -1.0012264251708984 2.394606828689575 -1.0208334922790527
v -2.415440082550049 0.9803931713104248 0.9791665077209473
v 1 -0.9803931713104248 -2.4362735748291016
v -1 1.0196068286895752 -2.4362735748291016
v 1 1.0196068286895752 -2.4362735748291016
v -1 -0.9803931713104248 -2.4362735748291016
v 1.0012264251708984 -2.394606828689575 -1.0208332538604736
v -1 -0.9803931713104248 -2.4362735748291016
v 1 -0.9803931713104248 -2.4362735748291016
v -1 -2.394836664199829 -1.0197067260742188
v 1 1.0196068286895752 -2.4362735748291016
v -1.0012264251708984 2.394606828689575 -1.0208334922790527
v 1.0012264251708984 2.394606828689575 -1.0208332538604736
v -1 1.0196068286895752 -2.4362735748291016
v 1.0012264251708984 -2.394606828689575 0.9791667461395264
v 2.415440082550049 -0.9803931713104248 -1.0208332538604736
v 2.3958332538604736 -1 0.9791667461395264
v 1.0012264251708984 -2.394606828689575 -1.0208332538604736
v 2.3958332538604736 -1 0.9791667461395264
v 2.415440082550049 0.9803931713104248 -1.0208332538604736
v 2.415440082550049 0.9803931713104248 0.9791667461395264
v 2.415440082550049 -0.9803931713104248 -1.0208332538604736
v 2.415440082550049 0.9803931713104248 0.9791667461395264
v 1.0012264251708984 2.394606828689575 -1.0208332538604736
v 1.0012264251708984 2.394606828689575 0.9791667461395264
v 2.415440082550049 0.9803931713104248 -1.0208332538604736
v -1.0012264251708984 2.394606828689575 0.9791666269302368
v 1.0012264251708984 2.394606828689575 -1.0208332538604736
v -1.0012264251708984 2.394606828689575 -1.0208334922790527
v 1.0012264251708984 2.394606828689575 0.9791667461395264
v -1 -2.394836664199829 -1.0197067260742188
v 1.0012264251708984 -2.394606828689575 0.9791667461395264
v -1.0012264251708984 -2.394606828689575 0.9791666269302368
v 1.0012264251708984 -2.394606828689575 -1.0208332538604736
v -1.0012264251708984 -2.394606828689575 0.9791666269302368
v -1 -0.9803931713104248 2.394606828689575
v -2.415440082550049 -0.9803931713104248 0.9791666269302368
v -1.0012264251708984 -2.394606828689575 0.9791666269302368
v 1.0012264251708984 -2.394606828689575 0.9791667461395264
v 2.3958332538604736 -1 0.9791667461395264
v 1 -0.9803931713104248 2.394606828689575
v 1.0012264251708984 -2.394606828689575 0.9791667461395264
v 1 -0.9803931713104248 2.394606828689575
v 2.415440082550049 0.9803931713104248 0.9791667461395264
v 1 1.0196068286895752 2.394606828689575
v 2.3958332538604736 -1 0.9791667461395264
v -2.415440082550049 -0.9803931713104248 0.9791666269302368
v -1 1.0196068286895752 2.394606828689575
v -2.415440082550049 0.9803931713104248 0.9791665077209473
v -1 -0.9803931713104248 2.394606828689575
v -2.415440082550049 0.9803931713104248 0.9791665077209473
v -1.0012264251708984 2.394606828689575 0.9791666269302368
v -1.0012264251708984 2.394606828689575 0.9791666269302368
v -1 1.0196068286895752 2.394606828689575
v 1 1.0196068286895752 2.394606828689575
v 1.0012264251708984 2.394606828689575 0.9791667461395264
v 1.0012264251708984 2.394606828689575 0.9791667461395264
v 2.415440082550049 0.9803931713104248 0.9791667461395264
v 1.0012264251708984 -2.394606828689575 -1.0208332538604736
v 1 -0.9803931713104248 -2.4362735748291016
v 2.415440082550049 -0.9803931713104248 -1.0208332538604736
v 1.0012264251708984 -2.394606828689575 -1.0208332538604736
v 2.415440082550049 -0.9803931713104248 -1.0208332538604736
v 1 1.0196068286895752 -2.4362735748291016
v 2.415440082550049 0.9803931713104248 -1.0208332538604736
v 1 -0.9803931713104248 -2.4362735748291016
v 2.415440082550049 0.9803931713104248 -1.0208332538604736
v 1.0012264251708984 2.394606828689575 -1.0208332538604736
v 1.0012264251708984 2.394606828689575 -1.0208332538604736
v 1 1.0196068286895752 -2.4362735748291016
v -1 -2.394836664199829 -1.0197067260742188
v -2.415440082550049 -0.9803931713104248 -1.0208334922790527
v -1 -0.9803931713104248 -2.4362735748291016
v -1 -2.394836664199829 -1.0197067260742188
v -1 -0.9803931713104248 -2.4362735748291016
v -2.415440082550049 0.9803931713104248 -1.0208334922790527
v -1 1.0196068286895752 -2.4362735748291016
v -2.415440082550049 -0.9803931713104248 -1.0208334922790527
v -1 1.0196068286895752 -2.4362735748291016
v -1.0012264251708984 2.394606828689575 -1.0208334922790527
v -1.0012264251708984 2.394606828689575 -1.0208334922790527
v -2.415440082550049 0.9803931713104248 -1.0208334922790527
vt 0 0
vt 1 1
vt 0 1
vt 1 0
vn 0 0 1
vn 0 -0.70741322 0.70680021
vn -4e-8 -0.70741319 0.70680024
vn -4e-8 0.71727914 0.69678593
vn 0 0.71727911 0.69678596
vn -0.70685772 -0.70735576 0
vn -0.70710674 -0.70710674 -0.00035255
vn -1 0 0
vn -0.70710678 0.70710678 0
vn 0 0 -1
vn 0 -0.70741325 -0.70680018
vn -0.00031647 -0.7076369 -0.70657619
vn 8e-8 0.71727917 -0.6967859
vn 0 0.71727911 -0.69678596
vn 0.70710678 -0.70710678 0
vn 0.99995099 -0.00989999 0
vn 0.99995195 0 0.00980294
vn 0.70710678 0.70710678 0
vn 0 1 0
vn 0 -0.99999999 0.00011498
vn 0.00011485 -0.99999999 0
vn -0.57735029 -0.57735029 0.57735024
vn 0 0 0
vn 0.57735027 -0.57735027 0.57735027
vn 0.70710678 0 0.70710678
vn 0.71195458 -0.00704869 0.70219014
vn -0.70710684 4e-8 0.70710672
vn -0.70710681 0 0.70710675
vn -0.58268107 0.58268102 0.56653825
vn 0.58268102 0.58268102 0.5665383
vn 0.5773503 -0.5773503 -0.5773502
vn 0.70710684 0 -0.70710672
vn 0.58268106 0.58268106 -0.56653824
vn -0.57706136 -0.57792765 -0.57706136
vn -0.70710678 0 -0.70710678
vn -0.58268102 0.58268102 -0.5665383
g Scene
usemtl 0
f 1/1/1 3/2/1 2/3/1
f 1/1/1 4/4/1 3/2/1
f 5/1/2 6/2/2 7/3/2
f 5/1/3 8/4/3 6/2/3
f 9/1/4 10/2/4 11/3/4
f 9/1/5 12/4/5 10/2/5
f 13/1/6 14/2/6 15/3/6
f 13/1/7 16/4/7 14/2/7
f 17/1/8 18/2/8 19/3/8
f 17/1/8 20/4/8 18/2/8
f 21/1/9 22/2/9 23/3/9
f 21/1/9 24/4/9 22/2/9
f 25/1/10 26/2/10 27/3/10
f 25/1/10 28/4/10 26/2/10
f 29/1/11 30/2/11 31/3/11
f 29/1/12 32/4/12 30/2/12
f 33/1/13 34/2/13 35/3/13
f 33/1/14 36/4/14 34/2/14
f 37/1/15 38/2/15 39/3/15
f 37/1/15 40/4/15 38/2/15
f 41/1/16 42/2/16 43/3/16
f 41/1/17 44/4/17 42/2/17
f 45/1/18 46/2/18 47/3/18
f 45/1/18 48/4/18 46/2/18
f 49/1/19 50/2/19 51/3/19
f 49/1/19 52/4/19 50/2/19
f 53/1/20 54/2/20 55/3/20
f 53/1/21 56/4/21 54/2/21
f 57/1/22 58/2/22 59/3/22
f 57/1/23 60/4/23 58/2/23
f 61/1/24 62/2/24 63/3/24
f 61/1/23 64/4/23 62/2/23
f 65/1/25 66/2/25 67/3/25
f 65/1/26 68/4/26 66/2/26
f 69/1/27 70/2/27 71/3/27
f 69/1/28 72/4/28 70/2/28
f 73/1/23 74/2/23 75/3/23
f 73/1/29 76/4/29 74/2/29
f 77/1/23 78/2/23 79/3/23
f 77/1/30 80/4/30 78/2/30
f 81/1/31 82/2/31 83/3/31
f 81/1/23 84/4/23 82/2/23
f 85/1/32 86/2/32 87/3/32
f 85/1/32 88/4/32 86/2/32
f 89/1/23 90/2/23 91/3/23
f 89/1/33 92/4/33 90/2/33
f 93/1/34 94/2/34 95/3/34
f 93/1/23 96/4/23 94/2/23
f 97/1/35 98/2/35 99/3/35
f 97/1/35 100/4/35 98/2/35
f 101/1/23 102/2/23 103/3/23
f 101/1/36 104/4/36 102/2/36
