mtllib romanMuscleHelmet.mtl
o Default
v -0.625 -1.25 0.5
v -0.625 -0.125 0.5
v 6.661338147750939e-16 -0.125 0.625
v 6.661338147750939e-16 -1.25 0.625
v -0.625 -1.25 -0.5
v -0.75 -0.125 0
v -0.625 -0.125 -0.5
v -0.75 -1.25 0
v 0.75 -1.25 3.3306690738754696e-16
v 0.625 -0.125 -0.5
v 0.75 -0.125 3.3306690738754696e-16
v 0.625 -1.25 -0.5
v 0.625 -1.25 -0.5
v 1.5543122344752192e-15 -0.12490630149841309 -0.6248999834060669
v 0.625 -0.125 -0.5
v 1.5543122344752192e-15 -1.25 -0.625
v 0.625 -1.25 0.5
v 0.75 -0.125 3.3306690738754696e-16
v 0.625 -0.125 0.5
v 0.75 -1.25 3.3306690738754696e-16
v -0.75 -1.25 0
v -0.625 -0.125 0.5
v -0.75 -0.125 0
v -0.625 -1.25 0.5
v 6.661338147750939e-16 -1.25 0.625
v 0.625 -0.125 0.5
v 6.661338147750939e-16 -0.125 0.625
v 0.625 -1.25 0.5
v 1.5543122344752192e-15 -1.25 -0.625
v -0.625 -0.125 -0.5
v 1.5543122344752192e-15 -0.12490630149841309 -0.6248999834060669
v -0.625 -1.25 -0.5
v 6.661338147750939e-16 0.37504684925079346 0.00004999670272809453
v 0.625 -0.125 -0.5
v 1.5543122344752192e-15 -0.12490630149841309 -0.6248999834060669
v 0.75 -0.125 3.3306690738754696e-16
v -0.625 -0.125 0.5
v 6.661338147750939e-16 0.37504684925079346 0.00004999670272809453
v -0.75 -0.125 0
v 6.661338147750939e-16 -0.125 0.625
v 0.625 -0.125 0.5
v 6.661338147750939e-16 0.37504684925079346 0.00004999670272809453
v 6.661338147750939e-16 -0.125 0.625
v 0.75 -0.125 3.3306690738754696e-16
v 6.661338147750939e-16 0.37504684925079346 0.00004999670272809453
v -0.625 -0.125 -0.5
v -0.75 -0.125 0
v 1.5543122344752192e-15 -0.12490630149841309 -0.6248999834060669
v 9.992007221626409e-16 0.00004686466127168387 1.1250499486923218
v 9.992007221626409e-16 1.5000468492507935 -1.1249500513076782
v 9.992007221626409e-16 1.5000468492507935 1.1250499486923218
v 9.992007221626409e-16 0.00004686466127168387 -1.1249500513076782
vt 0.21875 0.828125
vt 0.296875 0.96875
vt 0.21875 0.96875
vt 0.296875 0.828125
vt 0.09375 0.828125
vt 0.15625 0.96875
vt 0.09375 0.96875
vt 0.15625 0.828125
vt 0.4375 0.828125
vt 0.5 0.96875
vt 0.4375 0.96875
vt 0.5 0.828125
vt 0.578125 0.96875
vt 0.578125 0.828125
vt 0.375 0.828125
vt 0.375 0.96875
vt 0.65625 0.96875
vt 0.65625 0.828125
vt 0.890625 0.890625
vt 0.96875 0.96875
vt 0.890625 0.96875
vt 0.96875 0.890625
vt 0.8125 0.8125
vt 0.8125 0.890625
vt 0.890625 0.8125
vt 0.96875 0.8125
vt 0.8125 0.96875
vt 0.03125 0.609375
vt 0.3125 0.796875
vt 0.03125 0.796875
vt 0.3125 0.609375
vn -0.19611614 0 0.98058068
vn -0.9701425 0 -0.24253563
vn 0.9701425 0 -0.24253563
vn 0.19596524 0 -0.98061084
vn 0.19611613 0.00008717 -0.98058067
vn 0.9701425 0 0.24253563
vn -0.9701425 0 0.24253563
vn 0.19611614 0 0.98058068
vn -0.19596526 0.00008717 -0.98061084
vn -0.19611614 0 -0.98058068
vn 0.12399084 0.77484726 -0.61986934
vn 0.549471 0.82414302 -0.13736775
vn -0.54948344 0.82413421 0.13737086
vn -0.12398807 0.77479087 0.61994037
vn 0.12398807 0.77479087 0.61994037
vn 0.54948344 0.82413421 0.13737086
vn -0.549471 0.82414302 -0.13736775
vn -0.12399084 0.77484726 -0.61986934
vn 1 0 0
g Scene
usemtl 0
f 1/1/1 3/2/1 2/3/1
f 1/1/1 4/4/1 3/2/1
f 5/5/2 6/6/2 7/7/2
f 5/5/2 8/8/2 6/6/2
f 9/9/3 10/10/3 11/11/3
f 9/9/3 12/12/3 10/10/3
f 13/12/4 14/13/4 15/10/4
f 13/12/5 16/14/5 14/13/5
f 17/15/6 18/11/6 19/16/6
f 17/15/6 20/9/6 18/11/6
f 21/8/7 22/3/7 23/6/7
f 21/8/7 24/1/7 22/3/7
f 25/4/8 26/16/8 27/2/8
f 25/4/8 28/15/8 26/16/8
f 29/14/9 30/17/9 31/13/9
f 29/14/10 32/18/10 30/17/10
f 33/19/11 34/20/11 35/21/11
f 33/19/12 36/22/12 34/20/12
f 37/23/13 38/19/13 39/24/13
f 37/23/14 40/25/14 38/19/14
f 41/26/15 42/19/15 43/25/15
f 41/26/16 44/22/16 42/19/16
f 45/19/17 46/27/17 47/24/17
f 45/19/18 48/21/18 46/27/18
f 49/28/19 50/29/19 51/30/19
f 49/28/19 52/31/19 50/29/19
