mtllib wall.mtl
o Default
v 16.931873321533203 0 4.975143909454346
v 16.931873321533203 5.625 4.975143909454346
v 20.206716537475586 5.625 8.348060607910156
v 20.206716537475586 0 8.348060607910156
v 0 0 0
v 4.417092323303223 5.625 -0.06856334209442139
v 0 5.625 0
v 4.417092323303223 0 -0.06856334209442139
v 4.417092323303223 0 -0.06856334209442139
v 8.865684509277344 5.625 0.6240134835243225
v 4.417092323303223 5.625 -0.06856334209442139
v 8.865684509277344 0 0.6240134835243225
v 8.865684509277344 0 0.6240134835243225
v 13.11949348449707 5.625 2.295374870300293
v 8.865684509277344 5.625 0.6240134835243225
v 13.11949348449707 0 2.295374870300293
v 13.11949348449707 0 2.295374870300293
v 16.931873321533203 5.625 4.975143909454346
v 13.11949348449707 5.625 2.295374870300293
v 16.931873321533203 0 4.975143909454346
vt 0.538281261920929 0.8203125
vt 0.671875 0.99609375
vt 0.538281261920929 0.99609375
vt 0.538281261920929 0.8203125
vt 0.671875 0.8203125
vt 0.671875 0.99609375
vt 0.00390625 0.8203125
vt 0.13750000298023224 0.99609375
vt 0.00390625 0.99609375
vt 0.00390625 0.8203125
vt 0.13750000298023224 0.8203125
vt 0.13750000298023224 0.99609375
vt 0.13750000298023224 0.8203125
vt 0.2710937559604645 0.99609375
vt 0.13750000298023224 0.99609375
vt 0.13750000298023224 0.8203125
vt 0.2710937559604645 0.8203125
vt 0.2710937559604645 0.99609375
vt 0.2710937559604645 0.8203125
vt 0.4046874940395355 0.99609375
vt 0.2710937559604645 0.99609375
vt 0.2710937559604645 0.8203125
vt 0.4046874940395355 0.8203125
vt 0.4046874940395355 0.99609375
vt 0.4046874940395355 0.8203125
vt 0.538281261920929 0.99609375
vt 0.4046874940395355 0.99609375
vt 0.4046874940395355 0.8203125
vt 0.538281261920929 0.8203125
vt 0.538281261920929 0.99609375
vn -0.7174605574286628 0 0.6965991304431496
vn -0.7174605574286628 0 0.6965991304431496
vn -0.7174605574286628 0 0.6965991304431496
vn -0.7174605574286628 0 0.6965991304431496
vn -0.7174605574286628 0 0.6965991304431496
vn -0.7174605574286628 0 0.6965991304431496
vn 0.015520409967280773 0 0.9998795511832652
vn 0.015520409967280773 0 0.9998795511832652
vn 0.015520409967280773 0 0.9998795511832652
vn 0.015520409967280773 0 0.9998795511832652
vn 0.015520409967280773 0 0.9998795511832652
vn 0.015520409967280773 0 0.9998795511832652
vn -0.15383139921087413 0 0.9880971109242375
vn -0.15383139921087413 0 0.9880971109242375
vn -0.15383139921087413 0 0.9880971109242375
vn -0.15383139921087413 0 0.9880971109242375
vn -0.15383139921087413 0 0.9880971109242375
vn -0.15383139921087413 0 0.9880971109242375
vn -0.3656944791185559 0 0.9307349504247749
vn -0.3656944791185559 0 0.9307349504247749
vn -0.3656944791185559 0 0.9307349504247749
vn -0.3656944791185559 0 0.9307349504247749
vn -0.3656944791185559 0 0.9307349504247749
vn -0.3656944791185559 0 0.9307349504247749
vn -0.5750603537368233 0 0.8181109885340007
vn -0.5750603537368233 0 0.8181109885340007
vn -0.5750603537368233 0 0.8181109885340007
vn -0.5750603537368233 0 0.8181109885340007
vn -0.5750603537368233 0 0.8181109885340007
vn -0.5750603537368233 0 0.8181109885340007
g Scene
usemtl 0
f 1/1/1 3/2/2 2/3/3
f 1/4/4 4/5/5 3/6/6
f 5/7/7 6/8/8 7/9/9
f 5/10/10 8/11/11 6/12/12
f 9/13/13 10/14/14 11/15/15
f 9/16/16 12/17/17 10/18/18
f 13/19/19 14/20/20 15/21/21
f 13/22/22 16/23/23 14/24/24
f 17/25/25 18/26/26 19/27/27
f 17/28/28 20/29/29 18/30/30
